<?xml version="1.0" standalone="no"?>
<!DOCTYPE svg PUBLIC "-//W3C//DTD SVG 20010904//EN"
 "http://www.w3.org/TR/2001/REC-SVG-20010904/DTD/svg10.dtd">
<svg version="1.0" xmlns="http://www.w3.org/2000/svg"
 width="1024.000000pt" height="1024.000000pt" viewBox="0 0 1024.000000 1024.000000"
 preserveAspectRatio="xMidYMid meet">

<g transform="translate(0.000000,1024.000000) scale(0.100000,-0.100000)"
fill="#000000" stroke="none">
<path d="M4780 9864 c-19 -2 -87 -9 -150 -15 -801 -74 -1609 -378 -2275 -854
-226 -162 -398 -308 -600 -510 -768 -768 -1230 -1727 -1362 -2830 -25 -214
-25 -826 0 -1035 96 -786 343 -1466 762 -2100 346 -523 792 -971 1310 -1317
671 -447 1401 -705 2220 -785 167 -16 673 -16 835 0 271 28 522 72 758 132
1353 350 2470 1262 3082 2515 784 1606 594 3520 -491 4946 -701 921 -1729
1558 -2869 1778 -307 59 -454 72 -840 76 -190 2 -361 1 -380 -1z m760 -339
c723 -77 1389 -313 1980 -702 276 -182 468 -339 705 -577 752 -756 1196 -1731
1275 -2801 63 -858 -139 -1748 -565 -2491 -205 -358 -445 -664 -757 -969 -341
-334 -673 -571 -1098 -783 -670 -336 -1341 -487 -2080 -469 -367 9 -605 41
-956 127 -1584 390 -2820 1623 -3218 3209 -257 1025 -138 2101 338 3049 571
1138 1615 1977 2853 2293 247 63 583 114 868 133 117 7 512 -4 655 -19z"/>
<path d="M5095 8813 c-12 -2 -485 -468 -1053 -1036 -1097 -1097 -1050 -1046
-1021 -1110 19 -41 45 -47 219 -50 l165 -2 5 -848 5 -849 24 -19 c35 -28 92
-25 122 7 l24 26 3 881 c2 614 0 893 -8 919 -6 21 -21 43 -33 50 -12 7 -68 15
-125 18 l-102 5 900 900 900 900 900 -900 900 -900 -128 -5 c-119 -5 -154 -13
-184 -43 -2 -1 -5 -384 -8 -852 l-5 -850 -720 0 -720 0 -3 322 -2 323 22 4
c92 18 169 39 212 60 119 54 231 167 296 296 73 145 120 352 120 526 l0 94
-130 0 -130 0 0 270 c0 297 -3 317 -58 339 -35 15 -74 6 -99 -21 -16 -18 -18
-47 -23 -302 l-5 -281 -292 -3 -293 -2 0 279 0 280 -24 28 c-31 36 -95 39
-128 5 -23 -22 -23 -27 -26 -307 l-3 -285 -126 0 -126 0 7 -132 c3 -73 13
-167 21 -208 41 -207 134 -387 252 -489 63 -55 191 -117 273 -132 36 -6 71
-13 78 -15 9 -3 12 -89 12 -389 l0 -386 25 -24 24 -25 848 0 c651 1 852 3 864
13 39 30 39 31 39 891 l0 836 198 0 c185 0 200 1 220 20 25 24 37 61 28 93 -8
33 -2055 2074 -2086 2079 -14 3 -34 3 -45 1z"/>
</g>
</svg>
