<?xml version="1.0" standalone="no"?>
<!DOCTYPE svg PUBLIC "-//W3C//DTD SVG 20010904//EN"
 "http://www.w3.org/TR/2001/REC-SVG-20010904/DTD/svg10.dtd">
<svg version="1.0" xmlns="http://www.w3.org/2000/svg"
 width="512.000000pt" height="512.000000pt" viewBox="0 0 512.000000 512.000000"
 preserveAspectRatio="xMidYMid meet">

<g transform="translate(0.000000,512.000000) scale(0.100000,-0.100000)"
fill="#000000" stroke="none">
<path d="M2415 4933 c-566 -34 -1102 -270 -1509 -663 -388 -375 -633 -867
-707 -1420 -18 -139 -16 -450 5 -595 75 -526 305 -992 672 -1359 363 -363 822
-593 1344 -673 158 -24 500 -24 660 0 788 119 1451 600 1795 1302 111 227 182
456 222 715 24 160 24 501 -1 660 -81 528 -306 978 -672 1344 -476 476 -1144
730 -1809 689z m538 -197 c161 -31 391 -104 529 -169 453 -212 825 -576 1044
-1022 156 -318 227 -623 226 -975 0 -269 -30 -455 -111 -700 -109 -326 -266
-583 -511 -834 -133 -136 -223 -211 -370 -309 -358 -236 -771 -359 -1210 -359
-486 -1 -929 147 -1323 440 -192 142 -394 360 -529 567 -141 216 -262 520
-315 790 -25 130 -27 158 -27 400 -1 281 6 337 64 561 221 854 926 1486 1813
1624 186 29 530 23 720 -14z"/>
<path d="M2027 3892 c-346 -346 -517 -524 -517 -538 0 -36 20 -44 107 -44 l83
0 0 -419 c0 -368 2 -421 16 -435 18 -19 45 -21 62 -4 18 18 17 923 0 935 -7 4
-37 10 -66 13 l-52 5 450 450 450 450 450 -450 450 -450 -70 -5 c-48 -3 -74
-10 -80 -20 -6 -9 -10 -187 -10 -432 l0 -418 -360 0 -360 0 0 160 0 160 28 6
c108 23 185 82 232 177 34 71 60 177 60 255 l0 52 -65 0 -65 0 0 139 c0 114
-3 143 -16 155 -18 19 -28 20 -55 6 -17 -10 -19 -23 -19 -156 l0 -145 -147 3
-148 3 -5 144 c-4 123 -8 145 -22 155 -13 8 -23 8 -35 0 -16 -10 -18 -31 -21
-158 l-3 -146 -64 0 -65 0 0 -52 c0 -78 26 -184 60 -255 47 -95 124 -154 233
-177 l27 -6 0 -193 c0 -137 3 -196 12 -205 17 -17 859 -17 876 0 9 9 12 119
12 435 l0 423 98 0 c103 0 122 7 122 45 0 24 -1026 1055 -1050 1055 -8 0 -248
-233 -533 -518z"/>
</g>
</svg>
